<?xml version="1.0" standalone="no"?>
<!DOCTYPE svg PUBLIC "-//W3C//DTD SVG 20010904//EN"
 "http://www.w3.org/TR/2001/REC-SVG-20010904/DTD/svg10.dtd">
<svg version="1.0" xmlns="http://www.w3.org/2000/svg"
 width="512.000000pt" height="512.000000pt" viewBox="0 0 512.000000 512.000000"
 preserveAspectRatio="xMidYMid meet">
<metadata>
Created by potrace 1.16, written by Peter Selinger 2001-2019
</metadata>
<g transform="translate(0.000000,512.000000) scale(0.100000,-0.100000)"
fill="#000000" stroke="none">
<path d="M2230 5104 c-996 -127 -1833 -835 -2123 -1794 -78 -256 -107 -462
-107 -750 0 -491 116 -914 363 -1325 404 -672 1099 -1123 1877 -1220 162 -20
478 -20 640 0 1001 124 1842 831 2133 1795 78 256 107 462 107 750 0 491 -116
914 -363 1325 -404 672 -1099 1123 -1877 1220 -153 19 -501 18 -650 -1z m-196
-886 c3 -18 10 -240 17 -493 11 -436 11 -460 -6 -470 -62 -36 -103 -76 -130
-130 -26 -50 -30 -69 -29 -134 0 -42 6 -94 14 -116 17 -51 330 -661 448 -872
98 -176 156 -265 194 -300 61 -57 181 -70 279 -30 l56 23 380 -300 c208 -166
381 -305 383 -311 6 -17 -227 -128 -365 -175 -121 -41 -139 -44 -256 -48 -106
-3 -139 -1 -204 17 -334 92 -663 389 -1052 949 -172 248 -260 439 -333 726
-76 298 -120 654 -120 966 0 189 9 248 56 350 76 166 251 295 474 349 75 18
107 23 172 29 12 2 19 -8 22 -30z m228 1 c64 -33 105 -66 116 -97 6 -15 13
-171 16 -360 l5 -334 -47 -50 c-72 -77 -190 -124 -206 -82 -8 22 -26 533 -26
768 l0 189 49 -6 c27 -3 69 -16 93 -28z m1021 -2382 c29 -19 138 -101 243
-182 312 -243 304 -231 247 -407 l-38 -118 -391 313 c-215 171 -392 316 -393
321 -2 6 41 34 95 63 119 65 153 66 237 10z"/>
</g>
</svg>
